<?xml version="1.0" encoding="UTF-8"?>
<svg version="1.1" xmlns="http://www.w3.org/2000/svg" width="256" height="256">
<path d="M0 0 C84.48 0 168.96 0 256 0 C256 84.48 256 168.96 256 256 C171.52 256 87.04 256 0 256 C0 171.52 0 87.04 0 0 Z " fill="#FDFDFD" transform="translate(0,0)"/>
<path d="M0 0 C37.95 0 75.9 0 115 0 C115 0.66 115 1.32 115 2 C115.886875 2.25136719 116.77375 2.50273438 117.6875 2.76171875 C121.10857847 4.04058889 123.21617845 5.47926495 126 7.8125 C126.85851562 8.52535156 127.71703125 9.23820313 128.6015625 9.97265625 C129.39304688 10.64167969 130.18453125 11.31070312 131 12 C132.12495659 12.91671994 133.24994821 13.83339689 134.375 14.75 C136.7093499 16.75087134 138.94729016 18.71043903 141 21 C141 21.66 141 22.32 141 23 C141.5775 23.226875 142.155 23.45375 142.75 23.6875 C145.58972308 25.34400513 146.95224536 27.42567988 149 30 C150.71605876 31.56005342 152.48597189 33.04049681 154.265625 34.52734375 C158.34116736 37.98788309 161.67254903 41.84068629 165 46 C167.49066702 48.62175476 169.95632671 50.96603189 172.8125 53.1875 C179.63945212 58.7972436 187.11802732 67.53031631 188.3500061 76.56745911 C188.46038275 79.48020849 188.45027334 82.36703588 188.390625 85.28125 C188.38496521 86.33534058 188.37930542 87.38943115 188.37347412 88.47546387 C188.35121734 91.81745254 188.30103977 95.15833947 188.25 98.5 C188.22992123 100.7760261 188.21167288 103.05206913 188.1953125 105.328125 C188.1513878 110.88578782 188.08458337 116.44281517 188 122 C185.58490559 122.67286212 183.16819644 123.33846012 180.75 124 C180.06808594 124.19078125 179.38617188 124.3815625 178.68359375 124.578125 C175.29399088 125.49957044 172.54221024 126 169 126 C168.97812622 124.3125769 168.97812622 124.3125769 168.95581055 122.59106445 C168.89772246 118.40682613 168.82049036 114.22312003 168.73754883 110.03930664 C168.70434886 108.23047542 168.67630159 106.42154182 168.65356445 104.61254883 C168.61992742 102.00818367 168.56760805 99.4047524 168.51171875 96.80078125 C168.50213387 95.59268547 168.50213387 95.59268547 168.49235535 94.36018372 C168.37303184 89.77626076 167.96532695 86.71660724 165 83 C161.84883078 80.89922052 161.10991132 80.75031638 157.51611328 80.74462891 C156.61152374 80.73766998 155.7069342 80.73071106 154.77493286 80.72354126 C153.79990814 80.72453827 152.82488342 80.72553528 151.8203125 80.7265625 C149.756505 80.70627293 147.69270295 80.68542213 145.62890625 80.6640625 C142.37446491 80.6414588 139.12023889 80.62499144 135.86572266 80.61914062 C132.72518969 80.60961953 129.58562796 80.57584479 126.4453125 80.5390625 C125.47433624 80.54410797 124.50335999 80.54915344 123.50296021 80.55435181 C119.15270493 80.49100908 116.67686322 80.41805314 112.90966797 78.09130859 C110.22944235 75.15614973 109.86874102 73.51883715 109.75048828 69.64550781 C109.72020538 68.74407043 109.68992249 67.84263306 109.65872192 66.91387939 C109.62954681 65.93683044 109.6003717 64.95978149 109.5703125 63.953125 C109.49663779 61.89060549 109.42240122 59.828106 109.34765625 57.765625 C109.23430162 54.5092557 109.12508914 51.25292639 109.02587891 47.99609375 C108.92811499 44.85620302 108.8129815 41.71732445 108.6953125 38.578125 C108.67018585 37.60917297 108.6450592 36.64022095 108.61917114 35.64190674 C108.41092324 30.43932034 108.03436014 26.43213043 105 22 C101.61777868 20.87259289 98.98361297 20.84082309 95.41723633 20.79467773 C94.75355545 20.78477814 94.08987457 20.77487854 93.40608215 20.76467896 C91.21476801 20.7331191 89.02343219 20.70832845 86.83203125 20.68359375 C85.31173645 20.66301945 83.79144731 20.64202285 82.27116394 20.62062073 C78.27141913 20.56544916 74.27162311 20.51601825 70.27178955 20.46777344 C66.18961026 20.4175225 62.10750526 20.36185519 58.02539062 20.30664062 C50.0169899 20.19911918 42.00852701 20.09766089 34 20 C34 20.66 34 21.32 34 22 C33.278125 22.20625 32.55625 22.4125 31.8125 22.625 C26.39837569 25.27190522 23.9190094 29.66410906 21.650666 35.05696607 C20.60998864 38.16466099 20.62198241 41.08745399 20.61904907 44.34896851 C20.6143691 45.05505395 20.60968913 45.76113939 20.60486734 46.48862135 C20.59297325 48.8368479 20.6023523 51.18448475 20.61181641 53.53271484 C20.60774813 55.22355996 20.60240482 56.91440242 20.59588623 58.60523987 C20.58223513 63.18592865 20.58750272 67.76641422 20.59702349 72.34710646 C20.604634 77.14885971 20.59757038 81.9505959 20.59286499 86.75234985 C20.58741044 94.81735344 20.59459007 102.88227456 20.60888672 110.94726562 C20.62520157 120.25799821 20.61993197 129.56853359 20.6034075 138.87926137 C20.58977085 146.88458958 20.58788395 154.88985858 20.59572351 162.89519465 C20.60038948 167.6713265 20.60105479 172.44736584 20.59111404 177.22349167 C20.58241531 181.71663272 20.58851917 186.20952093 20.60579681 190.70263481 C20.60974665 192.34688969 20.6086535 193.99116602 20.60200882 195.63541222 C20.23672151 209.33330431 20.23672151 209.33330431 25.97265625 221.375 C26.66230469 221.91125 27.35195313 222.4475 28.0625 223 C28.75472656 223.556875 29.44695313 224.11375 30.16015625 224.6875 C34.20681202 227.57428628 38.04847371 227.17358338 42.85595703 227.20532227 C43.77308472 227.21522186 44.6902124 227.22512146 45.63513184 227.23532104 C48.67599885 227.26698715 51.71688151 227.29171366 54.7578125 227.31640625 C56.86246148 227.33697136 58.96710629 227.35796771 61.07174683 227.37937927 C66.61851631 227.43464565 72.16532334 227.48403478 77.7121582 227.53222656 C83.36933749 227.58240828 89.02646207 227.6381117 94.68359375 227.69335938 C105.78901579 227.80099679 116.89448528 227.90242934 128 228 C128.46639893 229.10625732 128.93279785 230.21251465 129.41333008 231.35229492 C130.67556031 234.25412319 131.94353911 236.69917723 133.6875 239.3125 C136 242.78466077 136 242.78466077 136 245 C136.66 245 137.32 245 138 245 C138 245.99 138 246.98 138 248 C124.33481137 248.09279907 110.66969807 248.16381561 97.00425816 248.20724869 C90.65840565 248.22809745 84.3127692 248.25636619 77.96704102 248.30175781 C71.83973513 248.34531131 65.71263669 248.3691575 59.58518791 248.37950897 C57.25087152 248.38688321 54.9165661 248.40128333 52.58233833 248.42292023 C49.30537766 248.45207969 46.02926741 248.45595065 42.75219727 248.45410156 C41.31396606 248.47567322 41.31396606 248.47567322 39.84667969 248.49768066 C29.28568752 248.43346187 19.99925228 243.5447748 12.25 236.5 C2 225.11111111 2 225.11111111 2 218 C1.34 218 0.68 218 0 218 C0 146.06 0 74.12 0 0 Z " fill="#818181" transform="translate(0,0)"/>
<path d="M0 0 C4.29860717 3.06016087 7.6836039 6.28858817 10.7890625 10.55859375 C10.7890625 11.21859375 10.7890625 11.87859375 10.7890625 12.55859375 C11.4490625 12.55859375 12.1090625 12.55859375 12.7890625 12.55859375 C18.43551555 19.73312981 21.19607332 27.54106871 21.7890625 36.55859375 C22.4490625 36.55859375 23.1090625 36.55859375 23.7890625 36.55859375 C23.7890625 58.99859375 23.7890625 81.43859375 23.7890625 104.55859375 C0.6890625 104.55859375 -22.4109375 104.55859375 -46.2109375 104.55859375 C-46.2109375 103.89859375 -46.2109375 103.23859375 -46.2109375 102.55859375 C-47.21898437 102.46191406 -48.22703125 102.36523438 -49.265625 102.265625 C-53.36561115 101.67652281 -56.64570897 100.13987037 -60.3359375 98.24609375 C-61.51414063 97.65183594 -62.69234375 97.05757813 -63.90625 96.4453125 C-68.58553369 93.77380656 -72.60334302 90.56703207 -76.2109375 86.55859375 C-76.2109375 85.89859375 -76.2109375 85.23859375 -76.2109375 84.55859375 C-76.8709375 84.55859375 -77.5309375 84.55859375 -78.2109375 84.55859375 C-79.62430926 82.56306886 -80.89815371 80.59060587 -82.1484375 78.49609375 C-82.83808594 77.37074219 -83.52773437 76.24539062 -84.23828125 75.0859375 C-91.30056644 62.85600188 -93.2278073 48.02940884 -90.55859375 34.171875 C-86.31295948 19.06616338 -78.49482434 6.42459124 -64.9609375 -1.87890625 C-63.38588066 -2.74823995 -61.80354544 -3.60465952 -60.2109375 -4.44140625 C-59.2415625 -4.99828125 -58.2721875 -5.55515625 -57.2734375 -6.12890625 C-38.16581549 -14.31788711 -17.27301799 -11.26103116 0 0 Z " fill="#818181" transform="translate(232.2109375,151.44140625)"/>
<path d="M0 0 C6.6 0 13.2 0 20 0 C20 6.6 20 13.2 20 20 C26.6 20 33.2 20 40 20 C40 26.27 40 32.54 40 39 C33.73 39.33 27.46 39.66 21 40 C20.67 46.27 20.34 52.54 20 59 C13.73 59 7.46 59 1 59 C1 52.4 1 45.8 1 39 C-5.6 39 -12.2 39 -19 39 C-19 32.73 -19 26.46 -19 20 C-12.73 20 -6.46 20 0 20 C0 13.4 0 6.8 0 0 Z " fill="#FCFCFC" transform="translate(188,169)"/>
<path d="M0 0 C0.66 0 1.32 0 2 0 C2 15.18 2 30.36 2 46 C-13.18 46 -28.36 46 -44 46 C-44 45.34 -44 44.68 -44 44 C-43.38253906 43.84144531 -42.76507813 43.68289062 -42.12890625 43.51953125 C-28.38782725 39.73393719 -16.32683455 31.67842269 -8 20 C-4.63402074 13.80969331 -1.41951986 6.92015931 0 0 Z " fill="#FAFAFA" transform="translate(254,210)"/>
<path d="M0 0 C10.23 0 20.46 0 31 0 C31 0.66 31 1.32 31 2 C30.24976562 2.25652344 29.49953125 2.51304688 28.7265625 2.77734375 C16.66117748 7.29046636 9.42144454 13.63966552 4.05859375 25.3984375 C3.30883353 27.24102165 2.6290673 29.11279809 2 31 C1.34 31 0.68 31 0 31 C0 20.77 0 10.54 0 0 Z " fill="#FBFBFB" transform="translate(0,0)"/>
<path d="M0 0 C1.88391785 3.26545761 2.49287967 6.28111761 3 10 C1.02 10.99 1.02 10.99 -1 12 C-2.36884358 7.48281619 -1.47075246 4.41225737 0 0 Z " fill="#8A8A8A" transform="translate(4,212)"/>
<path d="M0 0 C0.99 0.495 0.99 0.495 2 1 C2 1.66 2 2.32 2 3 C2.639375 3.28875 3.27875 3.5775 3.9375 3.875 C6 5 6 5 7 7 C5.02 7.33 3.04 7.66 1 8 C1.66 7.34 2.32 6.68 3 6 C2.505 5.566875 2.01 5.13375 1.5 4.6875 C0 3 0 3 0 0 Z " fill="#949494" transform="translate(139,20)"/>
<path d="M0 0 C2.31 0 4.62 0 7 0 C7 0.66 7 1.32 7 2 C2.375 4.125 2.375 4.125 -1 3 C-0.67 2.01 -0.34 1.02 0 0 Z " fill="#F5F5F5" transform="translate(24,0)"/>
<path d="M0 0 C0.66 0.33 1.32 0.66 2 1 C0.02 1.99 0.02 1.99 -2 3 C-2 3.66 -2 4.32 -2 5 C-1.01 5.33 -0.02 5.66 1 6 C-0.98 6.33 -2.96 6.66 -5 7 C-5 6.01 -5 5.02 -5 4 C-2.5 1.8125 -2.5 1.8125 0 0 Z " fill="#929292" transform="translate(19,6)"/>
<path d="M0 0 C2.50037734 2.17424117 3.43628586 3.73045798 4 7 C2.02 7 0.04 7 -2 7 C-1.01 6.67 -0.02 6.34 1 6 C0.67 4.02 0.34 2.04 0 0 Z " fill="#8B8B8B" transform="translate(133,240)"/>
<path d="M0 0 C0.33 0 0.66 0 1 0 C1 4.62 1 9.24 1 14 C0.67 14 0.34 14 0 14 C0 10.7 0 7.4 0 4 C-0.66 4 -1.32 4 -2 4 C-1.34 2.68 -0.68 1.36 0 0 Z " fill="#8A8A8A" transform="translate(187,74)"/>
<path d="M0 0 C1.64826111 2.96687001 2.44271087 5.65626525 3 9 C1.68 8.67 0.36 8.34 -1 8 C-0.67 5.36 -0.34 2.72 0 0 Z " fill="#8D8D8D" transform="translate(20,210)"/>
<path d="M0 0 C1.98 0.99 3.96 1.98 6 3 C5.67 3.66 5.34 4.32 5 5 C2.03 4.505 2.03 4.505 -1 4 C-0.67 2.68 -0.34 1.36 0 0 Z " fill="#898989" transform="translate(222,146)"/>
<path d="M0 0 C0.99 0 1.98 0 3 0 C4.6875 2 4.6875 2 6 4 C5.67 4.66 5.34 5.32 5 6 C4.34 5.34 3.68 4.68 3 4 C0.93125966 3.3574765 0.93125966 3.3574765 -1 3 C-0.67 2.01 -0.34 1.02 0 0 Z " fill="#919191" transform="translate(242,164)"/>
</svg>
